<mxfile host="app.diagrams.net" modified="2023-07-27T13:29:42.584Z" agent="Mozilla/5.0 (Windows NT 10.0; Win64; x64) AppleWebKit/537.36 (KHTML, like Gecko) Chrome/114.0.0.0 Safari/537.36" etag="0PGbph8Dreh2Mmhix8Si" version="21.6.5" type="github">
  <diagram name="Page-1" id="0783ab3e-0a74-02c8-0abd-f7b4e66b4bec">
    <mxGraphModel dx="1049" dy="560" grid="1" gridSize="10" guides="1" tooltips="1" connect="1" arrows="1" fold="1" page="1" pageScale="1" pageWidth="850" pageHeight="1100" background="none" math="0" shadow="0">
      <root>
        <mxCell id="0" />
        <mxCell id="1" parent="0" />
        <mxCell id="nAGFJHQDBodQnuohCQBn-31" value="" style="edgeStyle=orthogonalEdgeStyle;rounded=0;orthogonalLoop=1;jettySize=auto;html=1;" edge="1" parent="1" source="nAGFJHQDBodQnuohCQBn-4" target="nAGFJHQDBodQnuohCQBn-5">
          <mxGeometry relative="1" as="geometry" />
        </mxCell>
        <mxCell id="nAGFJHQDBodQnuohCQBn-4" value="" style="ellipse;fillColor=strokeColor;html=1;" vertex="1" parent="1">
          <mxGeometry x="405" y="80" width="30" height="30" as="geometry" />
        </mxCell>
        <mxCell id="nAGFJHQDBodQnuohCQBn-5" value="&amp;nbsp;Claim No" style="rounded=1;whiteSpace=wrap;html=1;arcSize=40;fontColor=#000000;fillColor=#ffffc0;strokeColor=#ff0000;" vertex="1" parent="1">
          <mxGeometry x="360" y="140" width="120" height="40" as="geometry" />
        </mxCell>
        <mxCell id="nAGFJHQDBodQnuohCQBn-6" value="" style="edgeStyle=orthogonalEdgeStyle;html=1;verticalAlign=bottom;endArrow=open;endSize=8;strokeColor=#ff0000;rounded=0;entryX=0.5;entryY=0;entryDx=0;entryDy=0;" edge="1" source="nAGFJHQDBodQnuohCQBn-5" parent="1" target="nAGFJHQDBodQnuohCQBn-21">
          <mxGeometry relative="1" as="geometry">
            <mxPoint x="425" y="240" as="targetPoint" />
          </mxGeometry>
        </mxCell>
        <mxCell id="nAGFJHQDBodQnuohCQBn-7" value="Enter&amp;nbsp;Time Period&amp;nbsp;" style="rounded=1;whiteSpace=wrap;html=1;arcSize=40;fontColor=#000000;fillColor=#ffffc0;strokeColor=#ff0000;" vertex="1" parent="1">
          <mxGeometry x="360" y="350" width="120" height="40" as="geometry" />
        </mxCell>
        <mxCell id="nAGFJHQDBodQnuohCQBn-8" value="" style="edgeStyle=orthogonalEdgeStyle;html=1;verticalAlign=bottom;endArrow=open;endSize=8;strokeColor=#ff0000;rounded=0;entryX=0.5;entryY=0;entryDx=0;entryDy=0;" edge="1" source="nAGFJHQDBodQnuohCQBn-7" parent="1" target="nAGFJHQDBodQnuohCQBn-9">
          <mxGeometry relative="1" as="geometry">
            <mxPoint x="420" y="500" as="targetPoint" />
          </mxGeometry>
        </mxCell>
        <mxCell id="nAGFJHQDBodQnuohCQBn-9" value="Enter Customer Name" style="rounded=1;whiteSpace=wrap;html=1;arcSize=40;fontColor=#000000;fillColor=#ffffc0;strokeColor=#ff0000;" vertex="1" parent="1">
          <mxGeometry x="360" y="450" width="120" height="40" as="geometry" />
        </mxCell>
        <mxCell id="nAGFJHQDBodQnuohCQBn-11" value="Enter Inner Transporter" style="rounded=1;whiteSpace=wrap;html=1;arcSize=40;fontColor=#000000;fillColor=#ffffc0;strokeColor=#ff0000;" vertex="1" parent="1">
          <mxGeometry x="360" y="660" width="120" height="40" as="geometry" />
        </mxCell>
        <mxCell id="nAGFJHQDBodQnuohCQBn-13" value="Customers&amp;nbsp;" style="html=1;whiteSpace=wrap;" vertex="1" parent="1">
          <mxGeometry x="250" y="530" width="110" height="50" as="geometry" />
        </mxCell>
        <mxCell id="nAGFJHQDBodQnuohCQBn-14" value="" style="endArrow=classic;html=1;rounded=0;exitX=0.5;exitY=1;exitDx=0;exitDy=0;entryX=0.5;entryY=0;entryDx=0;entryDy=0;" edge="1" parent="1" source="nAGFJHQDBodQnuohCQBn-9" target="nAGFJHQDBodQnuohCQBn-13">
          <mxGeometry width="50" height="50" relative="1" as="geometry">
            <mxPoint x="495" y="520" as="sourcePoint" />
            <mxPoint x="545" y="470" as="targetPoint" />
          </mxGeometry>
        </mxCell>
        <mxCell id="nAGFJHQDBodQnuohCQBn-15" value="search and Auto fill" style="shape=note2;boundedLbl=1;whiteSpace=wrap;html=1;size=25;verticalAlign=top;align=center;" vertex="1" parent="1">
          <mxGeometry x="455" y="525" width="120" height="60" as="geometry" />
        </mxCell>
        <mxCell id="nAGFJHQDBodQnuohCQBn-16" value="" style="endArrow=none;dashed=1;html=1;dashPattern=1 3;strokeWidth=2;rounded=0;exitX=0.5;exitY=1;exitDx=0;exitDy=0;entryX=0;entryY=0;entryDx=47.5;entryDy=0;entryPerimeter=0;" edge="1" parent="1" source="nAGFJHQDBodQnuohCQBn-9" target="nAGFJHQDBodQnuohCQBn-15">
          <mxGeometry width="50" height="50" relative="1" as="geometry">
            <mxPoint x="495" y="610" as="sourcePoint" />
            <mxPoint x="545" y="560" as="targetPoint" />
          </mxGeometry>
        </mxCell>
        <mxCell id="nAGFJHQDBodQnuohCQBn-17" value="" style="endArrow=none;dashed=1;html=1;dashPattern=1 3;strokeWidth=2;rounded=0;entryX=0;entryY=0.5;entryDx=0;entryDy=0;entryPerimeter=0;exitX=1;exitY=0.5;exitDx=0;exitDy=0;" edge="1" parent="1" source="nAGFJHQDBodQnuohCQBn-13" target="nAGFJHQDBodQnuohCQBn-15">
          <mxGeometry width="50" height="50" relative="1" as="geometry">
            <mxPoint x="495" y="610" as="sourcePoint" />
            <mxPoint x="545" y="560" as="targetPoint" />
          </mxGeometry>
        </mxCell>
        <mxCell id="nAGFJHQDBodQnuohCQBn-18" value="" style="endArrow=classic;html=1;rounded=0;exitX=0.5;exitY=1;exitDx=0;exitDy=0;entryX=0.5;entryY=0;entryDx=0;entryDy=0;" edge="1" parent="1" source="nAGFJHQDBodQnuohCQBn-13" target="nAGFJHQDBodQnuohCQBn-11">
          <mxGeometry width="50" height="50" relative="1" as="geometry">
            <mxPoint x="495" y="610" as="sourcePoint" />
            <mxPoint x="545" y="560" as="targetPoint" />
          </mxGeometry>
        </mxCell>
        <mxCell id="nAGFJHQDBodQnuohCQBn-19" value="appears automatically" style="shape=note2;boundedLbl=1;whiteSpace=wrap;html=1;size=25;verticalAlign=top;align=center;" vertex="1" parent="1">
          <mxGeometry x="550" y="130" width="120" height="60" as="geometry" />
        </mxCell>
        <mxCell id="nAGFJHQDBodQnuohCQBn-20" value="" style="endArrow=none;dashed=1;html=1;dashPattern=1 3;strokeWidth=2;rounded=0;entryX=0;entryY=0.5;entryDx=0;entryDy=0;entryPerimeter=0;exitX=1;exitY=0.5;exitDx=0;exitDy=0;" edge="1" parent="1" source="nAGFJHQDBodQnuohCQBn-5" target="nAGFJHQDBodQnuohCQBn-19">
          <mxGeometry width="50" height="50" relative="1" as="geometry">
            <mxPoint x="500" y="310" as="sourcePoint" />
            <mxPoint x="550" y="260" as="targetPoint" />
          </mxGeometry>
        </mxCell>
        <mxCell id="nAGFJHQDBodQnuohCQBn-28" value="" style="edgeStyle=orthogonalEdgeStyle;rounded=0;orthogonalLoop=1;jettySize=auto;html=1;entryX=0;entryY=0.5;entryDx=0;entryDy=0;" edge="1" parent="1" source="nAGFJHQDBodQnuohCQBn-21" target="nAGFJHQDBodQnuohCQBn-24">
          <mxGeometry relative="1" as="geometry">
            <mxPoint x="260" y="310" as="targetPoint" />
          </mxGeometry>
        </mxCell>
        <mxCell id="nAGFJHQDBodQnuohCQBn-29" value="yse" style="edgeLabel;html=1;align=center;verticalAlign=middle;resizable=0;points=[];" vertex="1" connectable="0" parent="nAGFJHQDBodQnuohCQBn-28">
          <mxGeometry x="-0.7629" y="1" relative="1" as="geometry">
            <mxPoint as="offset" />
          </mxGeometry>
        </mxCell>
        <mxCell id="nAGFJHQDBodQnuohCQBn-21" value="Modify" style="rhombus;whiteSpace=wrap;html=1;fontColor=#000000;fillColor=#ffffc0;strokeColor=#ff0000;" vertex="1" parent="1">
          <mxGeometry x="380" y="240" width="80" height="40" as="geometry" />
        </mxCell>
        <mxCell id="nAGFJHQDBodQnuohCQBn-22" value="" style="edgeStyle=orthogonalEdgeStyle;html=1;align=left;verticalAlign=bottom;endArrow=open;endSize=8;strokeColor=#ff0000;rounded=0;entryX=0.5;entryY=0;entryDx=0;entryDy=0;exitX=0.5;exitY=1;exitDx=0;exitDy=0;" edge="1" source="nAGFJHQDBodQnuohCQBn-21" parent="1" target="nAGFJHQDBodQnuohCQBn-7">
          <mxGeometry x="-1" relative="1" as="geometry">
            <mxPoint x="100" y="280" as="targetPoint" />
            <mxPoint x="380" y="290" as="sourcePoint" />
          </mxGeometry>
        </mxCell>
        <mxCell id="nAGFJHQDBodQnuohCQBn-30" value="no" style="edgeLabel;html=1;align=center;verticalAlign=middle;resizable=0;points=[];" vertex="1" connectable="0" parent="nAGFJHQDBodQnuohCQBn-22">
          <mxGeometry x="-0.4981" relative="1" as="geometry">
            <mxPoint as="offset" />
          </mxGeometry>
        </mxCell>
        <mxCell id="nAGFJHQDBodQnuohCQBn-24" value="Modify Claim No" style="rounded=1;whiteSpace=wrap;html=1;arcSize=40;fontColor=#000000;fillColor=#ffffc0;strokeColor=#ff0000;" vertex="1" parent="1">
          <mxGeometry x="180" y="350" width="120" height="40" as="geometry" />
        </mxCell>
        <mxCell id="nAGFJHQDBodQnuohCQBn-25" value="" style="edgeStyle=orthogonalEdgeStyle;html=1;verticalAlign=bottom;endArrow=open;endSize=8;strokeColor=#ff0000;rounded=0;entryX=0;entryY=0.5;entryDx=0;entryDy=0;" edge="1" source="nAGFJHQDBodQnuohCQBn-24" parent="1" target="nAGFJHQDBodQnuohCQBn-7">
          <mxGeometry relative="1" as="geometry">
            <mxPoint x="160" y="430" as="targetPoint" />
          </mxGeometry>
        </mxCell>
        <mxCell id="nAGFJHQDBodQnuohCQBn-32" value="Inner Transporters" style="html=1;whiteSpace=wrap;" vertex="1" parent="1">
          <mxGeometry x="250" y="755" width="110" height="50" as="geometry" />
        </mxCell>
        <mxCell id="nAGFJHQDBodQnuohCQBn-33" value="" style="endArrow=classic;html=1;rounded=0;exitX=0.5;exitY=1;exitDx=0;exitDy=0;entryX=0.5;entryY=0;entryDx=0;entryDy=0;" edge="1" parent="1" target="nAGFJHQDBodQnuohCQBn-32" source="nAGFJHQDBodQnuohCQBn-11">
          <mxGeometry width="50" height="50" relative="1" as="geometry">
            <mxPoint x="420" y="750" as="sourcePoint" />
            <mxPoint x="545" y="730" as="targetPoint" />
          </mxGeometry>
        </mxCell>
        <mxCell id="nAGFJHQDBodQnuohCQBn-34" value="search and Auto fill" style="shape=note2;boundedLbl=1;whiteSpace=wrap;html=1;size=25;verticalAlign=top;align=center;" vertex="1" parent="1">
          <mxGeometry x="455" y="750" width="120" height="60" as="geometry" />
        </mxCell>
        <mxCell id="nAGFJHQDBodQnuohCQBn-35" value="" style="endArrow=none;dashed=1;html=1;dashPattern=1 3;strokeWidth=2;rounded=0;exitX=0.5;exitY=1;exitDx=0;exitDy=0;entryX=0;entryY=0;entryDx=47.5;entryDy=0;entryPerimeter=0;" edge="1" parent="1" target="nAGFJHQDBodQnuohCQBn-34" source="nAGFJHQDBodQnuohCQBn-11">
          <mxGeometry width="50" height="50" relative="1" as="geometry">
            <mxPoint x="420" y="750" as="sourcePoint" />
            <mxPoint x="545" y="820" as="targetPoint" />
          </mxGeometry>
        </mxCell>
        <mxCell id="nAGFJHQDBodQnuohCQBn-36" value="" style="endArrow=none;dashed=1;html=1;dashPattern=1 3;strokeWidth=2;rounded=0;entryX=0;entryY=0.5;entryDx=0;entryDy=0;entryPerimeter=0;exitX=1;exitY=0.5;exitDx=0;exitDy=0;" edge="1" parent="1" source="nAGFJHQDBodQnuohCQBn-32" target="nAGFJHQDBodQnuohCQBn-34">
          <mxGeometry width="50" height="50" relative="1" as="geometry">
            <mxPoint x="495" y="835" as="sourcePoint" />
            <mxPoint x="545" y="785" as="targetPoint" />
          </mxGeometry>
        </mxCell>
        <mxCell id="nAGFJHQDBodQnuohCQBn-37" value="Entering&amp;nbsp;Forwarding Order details&amp;nbsp;" style="rounded=1;whiteSpace=wrap;html=1;arcSize=40;fontColor=#000000;fillColor=#ffffc0;strokeColor=#ff0000;" vertex="1" parent="1">
          <mxGeometry x="360" y="850" width="120" height="40" as="geometry" />
        </mxCell>
        <mxCell id="nAGFJHQDBodQnuohCQBn-38" value="" style="edgeStyle=orthogonalEdgeStyle;html=1;verticalAlign=bottom;endArrow=open;endSize=8;strokeColor=#ff0000;rounded=0;entryX=0.5;entryY=0;entryDx=0;entryDy=0;" edge="1" source="nAGFJHQDBodQnuohCQBn-37" parent="1" target="nAGFJHQDBodQnuohCQBn-44">
          <mxGeometry relative="1" as="geometry">
            <mxPoint x="420" y="950" as="targetPoint" />
          </mxGeometry>
        </mxCell>
        <mxCell id="nAGFJHQDBodQnuohCQBn-39" value="" style="endArrow=classic;html=1;rounded=0;exitX=0.5;exitY=1;exitDx=0;exitDy=0;entryX=0.5;entryY=0;entryDx=0;entryDy=0;" edge="1" parent="1" source="nAGFJHQDBodQnuohCQBn-32" target="nAGFJHQDBodQnuohCQBn-37">
          <mxGeometry width="50" height="50" relative="1" as="geometry">
            <mxPoint x="490" y="850" as="sourcePoint" />
            <mxPoint x="540" y="800" as="targetPoint" />
          </mxGeometry>
        </mxCell>
        <mxCell id="nAGFJHQDBodQnuohCQBn-40" value="Save" style="rounded=1;whiteSpace=wrap;html=1;arcSize=40;fontColor=#000000;fillColor=#ffffc0;strokeColor=#ff0000;" vertex="1" parent="1">
          <mxGeometry x="360" y="960" width="120" height="40" as="geometry" />
        </mxCell>
        <mxCell id="nAGFJHQDBodQnuohCQBn-41" value="" style="edgeStyle=orthogonalEdgeStyle;html=1;verticalAlign=bottom;endArrow=open;endSize=8;strokeColor=#ff0000;rounded=0;entryX=1;entryY=0.5;entryDx=0;entryDy=0;" edge="1" source="nAGFJHQDBodQnuohCQBn-40" parent="1" target="nAGFJHQDBodQnuohCQBn-48">
          <mxGeometry relative="1" as="geometry">
            <mxPoint x="520" y="970" as="targetPoint" />
          </mxGeometry>
        </mxCell>
        <mxCell id="nAGFJHQDBodQnuohCQBn-42" value="" style="ellipse;html=1;shape=endState;fillColor=strokeColor;" vertex="1" parent="1">
          <mxGeometry x="225" y="1030" width="30" height="30" as="geometry" />
        </mxCell>
        <mxCell id="nAGFJHQDBodQnuohCQBn-44" value="Total Selling Price" style="rounded=1;whiteSpace=wrap;html=1;arcSize=40;fontColor=#000000;fillColor=#ffffc0;strokeColor=#ff0000;" vertex="1" parent="1">
          <mxGeometry x="540" y="900" width="120" height="40" as="geometry" />
        </mxCell>
        <mxCell id="nAGFJHQDBodQnuohCQBn-45" value="" style="edgeStyle=orthogonalEdgeStyle;html=1;verticalAlign=bottom;endArrow=open;endSize=8;strokeColor=#ff0000;rounded=0;" edge="1" source="nAGFJHQDBodQnuohCQBn-44" parent="1" target="nAGFJHQDBodQnuohCQBn-40">
          <mxGeometry relative="1" as="geometry">
            <mxPoint x="600" y="1000" as="targetPoint" />
          </mxGeometry>
        </mxCell>
        <mxCell id="nAGFJHQDBodQnuohCQBn-46" value="&lt;font style=&quot;font-size: 11px;&quot;&gt;Calculated And Appears To The Customer&lt;/font&gt;" style="shape=note2;boundedLbl=1;whiteSpace=wrap;html=1;size=25;verticalAlign=top;align=center;" vertex="1" parent="1">
          <mxGeometry x="700" y="885" width="120" height="70" as="geometry" />
        </mxCell>
        <mxCell id="nAGFJHQDBodQnuohCQBn-47" value="" style="endArrow=none;dashed=1;html=1;dashPattern=1 3;strokeWidth=2;rounded=0;entryX=0;entryY=0.5;entryDx=0;entryDy=0;entryPerimeter=0;exitX=1;exitY=0.5;exitDx=0;exitDy=0;" edge="1" parent="1" source="nAGFJHQDBodQnuohCQBn-44" target="nAGFJHQDBodQnuohCQBn-46">
          <mxGeometry width="50" height="50" relative="1" as="geometry">
            <mxPoint x="630" y="870" as="sourcePoint" />
            <mxPoint x="680" y="820" as="targetPoint" />
          </mxGeometry>
        </mxCell>
        <mxCell id="nAGFJHQDBodQnuohCQBn-48" value="Create Daily Entry" style="rounded=1;whiteSpace=wrap;html=1;arcSize=40;fontColor=#000000;fillColor=#ffffc0;strokeColor=#ff0000;" vertex="1" parent="1">
          <mxGeometry x="180" y="960" width="120" height="40" as="geometry" />
        </mxCell>
        <mxCell id="nAGFJHQDBodQnuohCQBn-49" value="" style="edgeStyle=orthogonalEdgeStyle;html=1;verticalAlign=bottom;endArrow=open;endSize=8;strokeColor=#ff0000;rounded=0;entryX=0.5;entryY=0;entryDx=0;entryDy=0;" edge="1" source="nAGFJHQDBodQnuohCQBn-48" parent="1" target="nAGFJHQDBodQnuohCQBn-42">
          <mxGeometry relative="1" as="geometry">
            <mxPoint x="240" y="1010" as="targetPoint" />
            <Array as="points" />
          </mxGeometry>
        </mxCell>
      </root>
    </mxGraphModel>
  </diagram>
</mxfile>
